<?xml version="1.0" encoding="UTF-8" standalone="no"?>
<!DOCTYPE svg PUBLIC "-//W3C//DTD SVG 1.1//EN" "http://www.w3.org/Graphics/SVG/1.1/DTD/svg11.dtd">
<svg width="100%" height="100%" viewBox="0 0 756 756" version="1.1" xmlns="http://www.w3.org/2000/svg" xmlns:xlink="http://www.w3.org/1999/xlink" xml:space="preserve" xmlns:serif="http://www.serif.com/" style="fill-rule:evenodd;clip-rule:evenodd;stroke-linecap:round;stroke-linejoin:round;stroke-miterlimit:1.5;">
    <path d="M377.348,655.159C377.348,655.159 21.063,710.916 44.369,424.368C59.842,234.125 146.78,146.699 207.91,122.662C298.529,87.03 377.801,97.63 377.801,97.63M378.254,655.159C378.254,655.159 734.863,710.916 711.536,424.368C696.048,234.125 609.032,146.699 547.846,122.662C457.144,87.03 377.801,97.63 377.801,97.63" style="fill:rgb(17,17,17);"/>
    <path d="M222.588,496.395L551.513,486.954L404.83,659.536L352.488,659.536" style="fill:rgb(235,235,235);"/>
    <path d="M377.801,659.535C851.011,672.088 699.192,129.882 476.668,209.556C464.585,213.882 400.839,233.289 377.801,234.841M377.801,659.535C-94.979,672.088 56.702,129.882 279.024,209.556C291.095,213.882 354.772,233.285 377.794,234.841L377.801,234.841" style="fill:rgb(235,235,235);"/>
    <path d="M377.801,585.414C-6.102,560.984 167.723,214.554 377.348,362.361M377.801,585.414C762.053,560.984 588.07,214.554 378.254,362.361" style="fill:rgb(17,17,17);"/>
    <path d="M374.646,235.325L385.023,234.14C385.023,234.14 381.328,340.065 379.843,361.323C379.749,362.668 375.85,362.671 375.797,361.323C374.969,340.123 374.646,235.325 374.646,235.325" style="fill:rgb(235,235,235);"/>
    <path d="M360.115,361.255C360.115,361.255 372.802,359.57 375.744,361.247C378.277,362.691 377.74,362.376 380.22,361.047C383.348,359.371 396.759,361.255 396.759,361.255L396.759,579.528L377.8,585.414L363.832,579.528L360.114,361.255L360.115,361.255ZM316.514,104.637C316.514,104.637 308.931,96.156 378.438,96.156C445.575,96.156 445.248,104.637 445.248,104.637L377.913,234.834L377.689,234.835L316.514,104.637Z" style="fill:rgb(17,17,17);"/>
    <path d="M420.792,480.224C427.527,485.64 447.843,472.367 487.027,476.332C526.211,480.297 536.141,493.448 543.655,489.474C558.683,481.526 522.73,423.999 494.233,421.115C465.736,418.231 407.323,469.392 420.792,480.224M335.208,480.224C328.473,485.64 308.157,472.367 268.973,476.332C229.789,480.297 219.859,493.448 212.345,489.474C197.317,481.526 233.27,423.999 261.767,421.115C290.264,418.231 348.677,469.392 335.208,480.224" style="fill:rgb(255,213,0);"/>
    <path d="M170.59,358.006L175.569,430.655" style="fill:none;"/>
    <path d="M287.137,278.302L179.581,593.004L276.514,614.25L360.114,298.885" style="fill:white;fill-opacity:0.05;"/>
    <g transform="matrix(1,0,0,1,2.716,0)">
        <path d="M395.144,278.302L300.783,631.431L336.745,636.554L440.812,278.302" style="fill:white;fill-opacity:0.05;"/>
    </g>
    <path d="M234.723,290.631L143.952,378" style="fill:none;"/>
    <g transform="matrix(0.849014,0,0,0.743091,64.888309,148.357224)">
        <path d="M269.847,539.036C283.391,529.3 296.927,508.961 310.479,509.83C324.031,510.699 336.439,543.556 351.158,544.251C365.877,544.946 384.246,513.77 398.791,514.002C413.336,514.234 428.113,543.961 438.427,545.642C448.62,547.302 460.324,529.641 467.742,522.455" style="fill:rgb(255,213,0);fill-opacity:0;stroke:rgb(255,213,0);stroke-width:25.07px;"/>
    </g>
</svg>
